<svg width="50" height="50" viewBox="0 0 50 50" fill="none" xmlns="http://www.w3.org/2000/svg">
<path d="M31.4453 29.4172V6.97393C31.4453 3.33809 28.5383 0.390625 24.9024 0.390625C21.2664 0.390625 18.3594 3.33809 18.3594 6.97402V29.4174C15.625 31.4349 13.847 34.6725 13.847 38.3229C13.847 44.4393 18.7946 49.3975 24.9109 49.3975C31.0271 49.3975 35.9609 44.4391 35.9609 38.3229C35.9609 34.6723 34.1797 31.4347 31.4453 29.4172V29.4172Z" fill="#C4F0F2"/>
<path d="M29.5899 32.4744V16.7969H20.2149V32.4744C18.4571 33.8502 17.403 35.9582 17.403 38.3228C17.403 42.4681 20.7591 45.8285 24.9044 45.8285C29.0497 45.8285 32.4017 42.4681 32.4017 38.3228C32.4018 35.9582 31.3477 33.8502 29.5899 32.4744Z" fill="#FF473E"/>
<path d="M24.9128 17.9031C27.5098 17.9031 29.6151 17.4176 29.6151 16.8186C29.6151 16.2196 27.5098 15.734 24.9128 15.734C22.3158 15.734 20.2104 16.2196 20.2104 16.8186C20.2104 17.4176 22.3158 17.9031 24.9128 17.9031Z" fill="#FF6E83"/>
<path d="M23.39 8.88672C23.39 9.14639 23.1795 9.375 22.9198 9.375H18.3594V8.39844H22.9199C23.1796 8.39844 23.39 8.62705 23.39 8.88672V8.88672ZM22.9199 14.2578H18.3594V15.2344H22.9199C23.1796 15.2344 23.3901 15.0058 23.3901 14.7461C23.39 14.4864 23.1796 14.2578 22.9199 14.2578V14.2578ZM22.9199 20.1172H18.3594V21.0938H22.9199C23.1796 21.0938 23.3901 20.8651 23.3901 20.6055C23.39 20.3458 23.1796 20.1172 22.9199 20.1172V20.1172ZM22.9492 26.025V25.9766H18.3594V26.9531H22.9492V26.9653C23.1445 26.9653 23.4194 26.7548 23.4194 26.4951C23.4194 26.2354 23.1445 26.025 22.9492 26.025V26.025Z" fill="#597B91"/>
</svg>
